<?xml version="1.0" encoding="UTF-8"?>
<svg id="scale" width="22.311mm" height="36.232mm" version="1.1" viewBox="0 0 22.311 36.232" style="fill:#f00;stroke-width:.066817"
    xmlns="http://www.w3.org/2000/svg"
    xmlns:cc="http://creativecommons.org/ns#"
    xmlns:dc="http://purl.org/dc/elements/1.1/"
    xmlns:rdf="http://www.w3.org/1999/02/22-rdf-syntax-ns#">
    <metadata>
        <rdf:RDF>
            <cc:Work rdf:about="">
                <dc:format>image/svg+xml</dc:format>
                <dc:type rdf:resource="http://purl.org/dc/dcmitype/StillImage"/>
                <dc:title/>
            </cc:Work>
        </rdf:RDF>
    </metadata>
    <g transform="translate(-117.86 -113.58)">
        <path id="main" d="m128.78 149.36c-4.2205-2.4877-7.2348-5.6162-9.0587-9.4021-0.61574-1.278-0.95635-2.2231-1.2932-3.588-0.32631-1.3223-0.46047-2.2206-0.54185-3.6282-0.39502-6.8327 3.0554-14.212 8.3078-17.767 0.6488-0.43914 1.7916-1.0459 2.4014-1.2751l0.31659-0.11895 0.55203 0.2187c5.1113 2.025 8.9586 6.971 10.269 13.201 0.35968 1.7103 0.43561 2.4931 0.43367 4.4711-2e-3 1.8205-0.063 2.5396-0.33573 3.9422-1.1073 5.6955-4.3562 10.477-9.4377 13.89-0.41737 0.28028-0.77819 0.5095-0.80181 0.50936-0.0236-1.4e-4 -0.38875-0.20407-0.81136-0.45318zm1.0342-24.305c1.9822-0.51631 3.4002-1.9356 3.7475-3.7509 0.1864-0.97425 0.0648-1.8548-0.38099-2.7591-0.32328-0.65578-1.0372-1.4193-1.6827-1.7996-0.52424-0.30889-1.5599-0.65121-2.2621-0.74772-0.55851-0.0768-0.60113-0.073-1.1678 0.10371-2.7859 0.86861-4.2548 3.1108-3.6323 5.5446 0.37363 1.4608 1.5635 2.6998 3.0772 3.204 0.88172 0.29375 1.6854 0.36534 2.3011 0.20496z"/>
    </g>
</svg>
